<svg xmlns="http://www.w3.org/2000/svg" viewBox="0 0 1095 854"><defs><style>.cls-1{fill:#6cff00;}.cls-2{fill:#08b500;}.cls-3{fill:#085f00;}.cls-4{fill:#59d400;}</style></defs><g id="Layer_2" data-name="Layer 2"><g id="Layer_1-2" data-name="Layer 1"><path class="cls-1" d="M271.38,854H1095V63.1c-2.66-.06-5.33-.1-8-.1a346.33,346.33,0,0,0-92.28,12.46A144.74,144.74,0,0,1,870.4,47.92h0a219.53,219.53,0,0,0-337.88,83.23,145.38,145.38,0,0,1-99.4,80.18A162.05,162.05,0,0,0,304,370q0,6.6.53,13.08a129.46,129.46,0,0,1-44,107.8h0A235,235,0,0,0,271.38,854Z"/><path class="cls-2" d="M807.87,386.62c14.87-61-60.84-153.3-120.72-193-6.88-4.56-19.85-12.06-18.15-17.85,2.74-9.36,42.29-9.77,71.3-4.13,32,6.24,84.27,26.28,113.06,75.42,25.31,43.17,30.29,104.94-1.82,139.37-13.3,14.27-37.52,28.84-45,23.67C801.32,406.56,805.92,394.64,807.87,386.62Z"/><path class="cls-3" d="M849.58,391.13c-7.94,1.61-8.42-66.72-56.4-113.61-28.11-27.48-62-37.32-59.86-41.28,1.85-3.39,26.9,3.42,46,11.47,11.78,4.95,24.35,10.23,36.73,20.56,39.66,33.09,38.21,85.28,37.8,99.73C853.7,375.4,853.28,390.38,849.58,391.13Z"/><path class="cls-2" d="M139.52,346.59c-17-22.24-84.3-29.4-124.78-25.1-4.65.49-13,1.75-14.5-.44-2.42-3.54,14.17-14.32,28.6-20.46,15.94-6.77,45.7-14.87,76.65-7.95,27.2,6.08,52.9,23.19,52.46,42.13-.18,7.85-4.86,18.73-10,19.21C144.37,354.31,141.76,349.51,139.52,346.59Z"/><path class="cls-3" d="M149.4,351.52c-4,1.61-16.43-24.45-50.76-36.36-20.11-7-40.23-6.48-39.76-8.26.4-1.53,15.17-2.07,27-1.4,7.26.41,15,.85,23.55,3.25,27.37,7.67,35.86,27.81,38.22,33.38C148.83,345,151.27,350.77,149.4,351.52Z"/><path class="cls-4" d="M1027,785c-2.64-21.11-248.08,43.7-437-90-39.77-28.14-137.11-97-149.09-195.16,115,64,308.92,62.64,318.09,33.16,13.31-42.78-352.64-175.81-332-244,7.76-25.63,66.6-30.41,65-37s-60.55-10.94-98,21c-40.38,34.44-44.66,101.75-31,143a119,119,0,0,0,17.07,32.8C335.79,482.43,282.12,550.29,274,629c-6.88,66.68,20,131,53,171,18.54,22.48,41.42,40.23,67.48,54H865.84C960.89,827.65,1028.4,796.21,1027,785Z"/><path class="cls-2" d="M592,659.61C484,561.85,244,583,119.53,639.2c-14.3,6.46-39.13,19.92-49.16,10.14C54.17,633.55,84.24,565,118,521.71c37.22-47.79,117.27-114,236.07-105.43,104.38,7.51,229.34,72,271.76,168C643.36,624.05,653,683,637,689.77,625.93,694.48,606.16,672.46,592,659.61Z"/><path class="cls-3" d="M540.76,587.91c-8.3,12.4-108.68-77.92-241.5-78.3-77.82-.22-137.67,30.52-140.55,22.45-2.47-6.9,41.07-30.22,78.52-44.27,23-8.64,47.58-17.86,79.27-20.12,101.5-7.23,175.74,64.11,196.3,83.86C523.32,561.64,544.64,582.13,540.76,587.91Z"/></g></g></svg>